<?xml version="1.0" encoding="iso-8859-1"?>
<!-- Uploaded to: SVG Repo, www.svgrepo.com, Generator: SVG Repo Mixer Tools -->
<svg fill="#000000" height="800px" width="800px" style="fill: rgba(245, 176, 65, 1);transform: ;msFilter:;" version="1.1" id="Layer_1" xmlns="http://www.w3.org/2000/svg" xmlns:xlink="http://www.w3.org/1999/xlink" 
	 viewBox="0 0 512 512" xml:space="preserve">
<g transform="translate(0 -1)">
	<g>
		<g>
			<path d="M503.467,150.332h-34.133V116.2h34.133c4.713,0,8.533-3.82,8.533-8.533s-3.82-8.533-8.533-8.533H8.533
				c-4.713,0-8.533,3.82-8.533,8.533s3.82,8.533,8.533,8.533h34.133v34.132H8.533c-4.713,0-8.533,3.82-8.533,8.533v34.133
				c0,4.713,3.82,8.533,8.533,8.533h8.532v204.802c0,4.713,3.82,8.533,8.533,8.533h85.333c4.713,0,8.533-3.82,8.533-8.533
				c0-75.466,61.067-136.533,136.533-136.533c75.472,0,136.533,61.064,136.533,136.533c0,4.713,3.82,8.533,8.533,8.533h85.333
				c4.713,0,8.533-3.82,8.533-8.533V201.532h8.534c4.713,0,8.533-3.821,8.533-8.533v-34.133
				C512,154.152,508.18,150.332,503.467,150.332z M477.866,397.8h-68.499c-4.421-80.918-71.333-145.067-153.368-145.067
				c-82.029,0-148.946,64.151-153.367,145.067H34.133V201.533h443.733V397.8z M452.267,150.332h-34.133V116.2h34.133V150.332z
				 M366.933,150.332V116.2h34.133v34.132H366.933z M315.733,150.332V116.2h34.133v34.132H315.733z M264.533,150.332V116.2h34.133
				v34.132H264.533z M213.333,150.332V116.2h34.133v34.132H213.333z M162.133,150.332V116.2h34.133v34.132H162.133z
				 M110.933,150.332V116.2h34.133v34.132H110.933z M59.733,116.2h34.133v34.132H59.733V116.2z M494.933,184.465H17.067v-17.067
				h34.1c0.011,0,0.022,0.002,0.034,0.002s0.022-0.002,0.034-0.002h51.132c0.011,0,0.022,0.002,0.034,0.002s0.022-0.002,0.034-0.002
				h51.132c0.011,0,0.022,0.002,0.034,0.002s0.022-0.002,0.034-0.002h51.132c0.011,0,0.022,0.002,0.034,0.002
				s0.022-0.002,0.034-0.002h51.132c0.011,0,0.022,0.002,0.034,0.002s0.022-0.002,0.034-0.002h51.132
				c0.011,0,0.022,0.002,0.034,0.002s0.022-0.002,0.034-0.002h51.132c0.011,0,0.022,0.002,0.034,0.002s0.022-0.002,0.034-0.002
				h51.132c0.011,0,0.022,0.002,0.034,0.002s0.022-0.002,0.034-0.002h51.132c0.011,0,0.022,0.002,0.034,0.002
				s0.022-0.002,0.034-0.002h34.099V184.465z"/>
			<path d="M59.733,244.2h34.133c4.713,0,8.533-3.82,8.533-8.533s-3.821-8.533-8.533-8.533H59.733c-4.713,0-8.533,3.82-8.533,8.533
				S55.021,244.2,59.733,244.2z"/>
			<path d="M76.8,278.333c0,4.713,3.82,8.533,8.533,8.533h34.133c4.713,0,8.533-3.82,8.533-8.533s-3.82-8.533-8.533-8.533H85.333
				C80.62,269.8,76.8,273.621,76.8,278.333z"/>
			<path d="M418.133,244.2h34.133c4.713,0,8.533-3.82,8.533-8.533s-3.821-8.533-8.533-8.533h-34.133
				c-4.713,0-8.533,3.82-8.533,8.533S413.421,244.2,418.133,244.2z"/>
			<path d="M392.533,286.867h34.133c4.713,0,8.533-3.82,8.533-8.533s-3.82-8.533-8.533-8.533h-34.133
				c-4.713,0-8.533,3.82-8.533,8.533S387.821,286.867,392.533,286.867z"/>
		</g>
	</g>
</g>
</svg>